# xmcd
#
# Track frame offsets: 
#        150
#        9016
#        21309
#        38374
#        50178
#
# Disc length: 881 seconds
#
# Revision: 0
# Processed by: cddbd v1.5.2PL0 Copyright (c) Steve Scherf et al.
# Submitted via: ExactAudioCopy v0.95b4
#
DISCID=2f036f05
DTITLE=Spider John Hutchinson - Solo You Can Hear Me
DYEAR=2001
DGENRE=Blues
TTITLE0=Turn Ya Lamp Down Low
TTITLE1=Peculiar Behaviour
TTITLE2=Freebird
TTITLE3=Another Leavin' Blues
TTITLE4=Gone To Spain
EXTD=
EXTT0=
EXTT1=
EXTT2=
EXTT3=
EXTT4=
PLAYORDER=
